<?xml version="1.0" encoding="UTF-8" standalone="no"?>
<svg width="202px" height="33px" viewBox="0 0 202 33" version="1.1" xmlns="http://www.w3.org/2000/svg" xmlns:xlink="http://www.w3.org/1999/xlink" xmlns:sketch="http://www.bohemiancoding.com/sketch/ns">
    <!-- Generator: Sketch 3.4.4 (17249) - http://www.bohemiancoding.com/sketch -->
    <title>logo</title>
    <desc>Created with Sketch.</desc>
    <defs>
        <linearGradient x1="46.2752761%" y1="-244.123127%" x2="50%" y2="110.848227%" id="linearGradient-1">
            <stop stop-color="#FFF9E0" offset="0%"></stop>
            <stop stop-color="#F5D575" offset="100%"></stop>
        </linearGradient>
        <linearGradient x1="29.438002%" y1="-3.77281611%" x2="66.940285%" y2="108.448332%" id="linearGradient-2">
            <stop stop-color="#FFF9E0" offset="0%"></stop>
            <stop stop-color="#F5D575" offset="100%"></stop>
        </linearGradient>
    </defs>
    <g id="Promo-website" stroke="none" stroke-width="1" fill="none" fill-rule="evenodd" sketch:type="MSPage">
        <g id="Desktop" sketch:type="MSArtboardGroup" transform="translate(-539.000000, -35.000000)">
            <g id="logo" sketch:type="MSLayerGroup" transform="translate(539.000000, 35.000000)">
                <path d="M6.28834175,26.5776265 L6.28834175,12.3962835 C6.28834175,12.1670901 6.0877975,11.9665458 5.85860408,11.9665458 L0.787699606,11.9665458 C0.558506183,11.9665458 0.357961939,12.1670901 0.357961939,12.3962835 L0.357961939,31.33339 C0.357961939,31.5339343 0.558506183,31.7344785 0.787699606,31.7344785 L11.1300528,31.7344785 C11.3592462,31.7344785 11.5597905,31.5339343 11.5884396,31.33339 L11.9895281,26.978715 C11.9895281,26.7495216 11.8176331,26.5776265 11.6170888,26.5776265 L6.28834175,26.5776265 Z M23.2002478,32.135567 C17.0979729,32.135567 13.0297897,28.0100854 13.0297897,21.8505122 C13.0297897,15.6336406 17.0979729,11.508159 23.2002478,11.508159 C29.3025227,11.508159 33.3707059,15.6336406 33.3707059,21.8505122 C33.3707059,28.0100854 29.3025227,32.135567 23.2002478,32.135567 L23.2002478,32.135567 Z M23.2002478,17.2952929 C20.8510152,17.2952929 19.2753104,19.1288403 19.2753104,21.8505122 C19.2753104,24.572184 20.8510152,26.4057314 23.2002478,26.4057314 C25.5494804,26.4057314 27.1251851,24.572184 27.1251851,21.8505122 C27.1251851,19.1288403 25.5494804,17.2952929 23.2002478,17.2952929 L23.2002478,17.2952929 Z M45.1830583,32.135567 C39.0807834,32.135567 35.0126002,28.0100854 35.0126002,21.8505122 C35.0126002,15.6336406 39.0807834,11.508159 45.1830583,11.508159 C51.2853332,11.508159 55.3535164,15.6336406 55.3535164,21.8505122 C55.3535164,28.0100854 51.2853332,32.135567 45.1830583,32.135567 L45.1830583,32.135567 Z M45.1830583,17.2952929 C42.8338257,17.2952929 41.2581209,19.1288403 41.2581209,21.8505122 C41.2581209,24.572184 42.8338257,26.4057314 45.1830583,26.4057314 C47.5322909,26.4057314 49.1079957,24.572184 49.1079957,21.8505122 C49.1079957,19.1288403 47.5322909,17.2952929 45.1830583,17.2952929 L45.1830583,17.2952929 Z M68.0826425,21.3921253 L73.7551797,12.3103359 C73.8697764,12.1097917 73.7838289,11.9665458 73.5546355,11.9665458 L67.2804655,11.9665458 C67.0226229,11.9665458 66.7361311,12.1097917 66.6215344,12.3103359 L63.1836331,18.8136993 L63.1836331,12.3962835 C63.1836331,12.1670901 63.011738,11.9665458 62.7538954,11.9665458 L57.682991,11.9665458 C57.4824467,11.9665458 57.2819025,12.1670901 57.2819025,12.3962835 L57.2819025,31.33339 C57.2819025,31.5339343 57.4824467,31.7344785 57.682991,31.7344785 L62.7538954,31.7344785 C63.011738,31.7344785 63.1836331,31.5339343 63.1836331,31.33339 L63.1836331,24.2283939 L66.7361311,31.3906884 C66.8507279,31.5912326 67.1372196,31.7344785 67.3377639,31.7344785 L73.9843731,31.7344785 C74.2135666,31.7344785 74.3281633,31.5912326 74.1849174,31.3906884 L68.0826425,21.3921253 Z M88.3178532,31.7344785 C88.5470466,31.7344785 88.7475908,31.5625834 88.7475908,31.33339 L88.7475908,26.978715 C88.7475908,26.7495216 88.5470466,26.5776265 88.3178532,26.5776265 L83.4474929,26.5776265 C86.6275517,23.3116202 88.0886597,19.9883156 88.0886597,17.152047 C88.0886597,13.6281981 85.710778,11.5368081 81.6998931,11.5368081 C79.6944506,11.5368081 77.3738672,12.3676343 75.4257231,13.771444 C75.1965297,13.9433391 75.1105822,14.0579358 75.1965297,14.25848 L76.7149361,17.7250305 C76.7722345,17.9255748 77.0014279,18.0688207 77.2019722,17.954224 C78.3479393,17.152047 79.5798539,16.6936601 80.4679784,16.6936601 C81.356103,16.6936601 81.8717882,17.0947486 81.8717882,17.8109781 C81.8717882,19.6158763 79.5512048,22.9105317 75.1392314,27.465751 C74.9673363,27.6662953 74.8527396,27.952787 74.8527396,28.1533313 L74.8527396,31.33339 C74.8527396,31.5625834 75.0246347,31.7344785 75.2824773,31.7344785 L88.3178532,31.7344785 Z M90.1316425,29.7576852 C90.045695,29.9009311 90.1316425,30.1014754 90.3608359,30.2733704 C91.7932948,31.4193375 94.3144225,32.1642162 96.7209534,32.1642162 C101.132927,32.1642162 104.083792,29.6144393 104.083792,25.8040987 C104.083792,19.5012796 95.9760748,19.6158763 95.9760748,17.9255748 C95.9760748,17.2952929 96.5490583,16.8942044 97.4371828,16.8942044 C98.4399041,16.9801519 100.072907,17.5817847 101.476717,18.3839616 C101.70591,18.5272075 101.906455,18.44126 101.992402,18.1547682 L103.7973,14.1152341 C103.883248,13.9719883 103.7973,13.7427948 103.568107,13.5995489 C101.763209,12.3676343 99.1847827,11.5368081 97.1506911,11.5368081 C92.796016,11.5368081 89.9024491,14.086585 89.9024491,17.9255748 C89.9024491,24.1710956 97.952868,24.085148 97.952868,25.7754495 C97.952868,26.4343806 97.3512353,26.8641183 96.4344616,26.8641183 C95.3457929,26.7781707 93.7700881,26.2338364 92.4522259,25.4889577 C92.2230325,25.3457119 92.0224882,25.4316594 91.9365407,25.7181512 L90.1316425,29.7576852 Z M106.212722,11.9665458 C106.012178,11.9665458 105.811634,12.1670901 105.811634,12.3962835 L105.811634,31.33339 C105.811634,31.5339343 106.012178,31.7344785 106.212722,31.7344785 L111.340925,31.7344785 C111.598768,31.7344785 111.799312,31.5339343 111.799312,31.33339 L111.799312,25.6035545 L112.973928,25.6035545 C117.987534,25.6035545 120.995698,22.8818826 120.995698,18.7850501 C120.995698,14.6882177 117.987534,11.9665458 112.973928,11.9665458 L106.212722,11.9665458 Z M111.742014,20.4753516 L111.742014,17.0947486 L113.231771,17.0947486 C114.234492,17.0947486 114.922072,17.7823289 114.922072,18.7850501 C114.922072,19.7877714 114.234492,20.4753516 113.231771,20.4753516 L111.742014,20.4753516 Z M128.224182,26.5776265 L128.224182,24.1424464 L133.782123,24.1424464 C134.039965,24.1424464 134.240509,23.9419021 134.269159,23.7700071 L134.670247,19.7591222 C134.698896,19.5872271 134.55565,19.3866829 134.297808,19.3866829 L128.224182,19.3866829 L128.224182,17.1233978 L135.701617,17.1233978 C135.95946,17.1233978 136.160004,16.9515027 136.160004,16.6936601 L136.160004,12.3676343 C136.160004,12.1670901 135.95946,11.9665458 135.701617,11.9665458 L122.666242,11.9665458 C122.408399,11.9665458 122.265153,12.1097917 122.265153,12.3676343 L122.265153,31.3047408 C122.322451,31.5052851 122.522996,31.7344785 122.72354,31.7344785 L136.045408,31.7344785 C136.274601,31.7344785 136.475145,31.5339343 136.475145,31.33339 L136.475145,26.9500658 C136.475145,26.7495216 136.274601,26.5776265 136.045408,26.5776265 L128.224182,26.5776265 Z M150.407537,12.3389851 C150.321589,12.1670901 150.006448,11.9665458 149.719957,11.9665458 L143.875524,11.9665458 C143.589033,11.9665458 143.273892,12.1670901 143.187944,12.3389851 L136.71323,31.3620392 C136.627282,31.5339343 136.741879,31.7344785 136.971072,31.7344785 L142.64361,31.7344785 C142.901452,31.7344785 143.130646,31.5912326 143.245242,31.3620392 L144.104718,28.3538755 L149.490763,28.3538755 L150.350238,31.3620392 C150.464835,31.5912326 150.694029,31.7344785 150.951871,31.7344785 L156.624408,31.7344785 C156.853602,31.7344785 156.968199,31.5339343 156.882251,31.3620392 L150.407537,12.3389851 Z M148.344796,24.2570431 L145.250685,24.2570431 L146.79774,18.8136993 L148.344796,24.2570431 Z M168.379462,21.3921253 L174.052,12.3103359 C174.166596,12.1097917 174.080649,11.9665458 173.851455,11.9665458 L167.577285,11.9665458 C167.319443,11.9665458 167.032951,12.1097917 166.918354,12.3103359 L163.480453,18.8136993 L163.480453,12.3962835 C163.480453,12.1670901 163.308558,11.9665458 163.050715,11.9665458 L157.979811,11.9665458 C157.779267,11.9665458 157.578722,12.1670901 157.578722,12.3962835 L157.578722,31.33339 C157.578722,31.5339343 157.779267,31.7344785 157.979811,31.7344785 L163.050715,31.7344785 C163.308558,31.7344785 163.480453,31.5339343 163.480453,31.33339 L163.480453,24.2283939 L167.032951,31.3906884 C167.147548,31.5912326 167.43404,31.7344785 167.634584,31.7344785 L174.281193,31.7344785 C174.510386,31.7344785 174.624983,31.5912326 174.481737,31.3906884 L168.379462,21.3921253 Z" id="LOOK2SPEAK-Copy" fill="url(#linearGradient-1)" sketch:type="MSShapeGroup"></path>
                <path d="M180.651941,17.3159359 C179.000104,15.5435335 178.010051,13.2831891 178.010051,10.8211826 C178.010051,5.13008401 183.300251,0.516537059 189.826045,0.516537059 C196.351838,0.516537059 201.642038,5.13008401 201.642038,10.8211826 C201.642038,16.5122812 196.351838,21.1258281 189.826045,21.1258281 C187.980503,21.1258281 186.233785,20.7568371 184.6776,20.0988355 C182.336577,21.585578 179.366234,21.711491 179.366234,21.711491 C179.366234,21.711491 179.102729,21.8129755 178.896343,21.6451868 C178.689957,21.4773981 179.007941,21.135042 179.007941,21.135042 C180.038016,19.8596519 180.503547,18.5383993 180.651941,17.3159359 Z" id="Oval-1-Copy-2" fill="url(#linearGradient-2)" sketch:type="MSShapeGroup"></path>
            </g>
        </g>
    </g>
</svg>